<?xml version="1.0" standalone="no"?>
<!DOCTYPE svg PUBLIC "-//W3C//DTD SVG 20010904//EN"
 "http://www.w3.org/TR/2001/REC-SVG-20010904/DTD/svg10.dtd">
<svg version="1.0" xmlns="http://www.w3.org/2000/svg"
 width="700.000000pt" height="700.000000pt" viewBox="0 0 700.000000 700.000000"
 preserveAspectRatio="xMidYMid meet">
<metadata>
Created by potrace 1.11, written by Peter Selinger 2001-2013
</metadata>
<g transform="translate(0.000000,700.000000) scale(0.100000,-0.100000)"
fill="#000000" stroke="none">
<path d="M0 3500 l0 -3500 3500 0 3500 0 0 3500 0 3500 -3500 0 -3500 0 0
-3500z m3800 2335 c288 -29 492 -81 753 -189 145 -60 397 -192 397 -207 0 -8
-377 -849 -383 -855 -3 -3 -60 32 -128 76 -156 102 -360 204 -464 230 -117 30
-290 45 -360 30 -84 -18 -203 -82 -278 -150 -75 -70 -122 -151 -132 -233 -6
-46 -3 -61 25 -120 39 -80 117 -158 215 -212 75 -42 352 -135 580 -195 373
-97 460 -129 610 -228 278 -184 474 -533 515 -917 15 -138 0 -360 -35 -503
-91 -376 -309 -723 -572 -912 -208 -149 -509 -248 -868 -286 -321 -33 -642 7
-979 122 -133 46 -395 176 -526 262 -118 77 -308 225 -316 247 -3 8 116 208
273 460 l278 445 125 -124 c342 -338 510 -435 825 -478 198 -27 328 -1 474 96
119 79 171 160 193 299 18 117 -10 222 -83 310 -70 85 -284 223 -429 276 -30
11 -127 38 -215 61 -455 117 -761 263 -936 447 -186 196 -298 507 -299 830 0
110 37 313 82 447 105 315 357 626 631 779 156 88 408 167 612 191 149 19 243
19 415 1z"/>
</g>
</svg>
